<svg xmlns="http://www.w3.org/2000/svg" width="410" height="568" viewBox="0 0 410 568"><rect width="410" height="568" fill="#ffffff"/><g fill="#000000"><rect x="40" y="119" width="10" height="10"/><rect x="50" y="119" width="10" height="10"/><rect x="60" y="119" width="10" height="10"/><rect x="70" y="119" width="10" height="10"/><rect x="80" y="119" width="10" height="10"/><rect x="90" y="119" width="10" height="10"/><rect x="100" y="119" width="10" height="10"/><rect x="120" y="119" width="10" height="10"/><rect x="150" y="119" width="10" height="10"/><rect x="210" y="119" width="10" height="10"/><rect x="220" y="119" width="10" height="10"/><rect x="230" y="119" width="10" height="10"/><rect x="250" y="119" width="10" height="10"/><rect x="260" y="119" width="10" height="10"/><rect x="280" y="119" width="10" height="10"/><rect x="300" y="119" width="10" height="10"/><rect x="310" y="119" width="10" height="10"/><rect x="320" y="119" width="10" height="10"/><rect x="330" y="119" width="10" height="10"/><rect x="340" y="119" width="10" height="10"/><rect x="350" y="119" width="10" height="10"/><rect x="360" y="119" width="10" height="10"/><rect x="40" y="129" width="10" height="10"/><rect x="100" y="129" width="10" height="10"/><rect x="140" y="129" width="10" height="10"/><rect x="190" y="129" width="10" height="10"/><rect x="230" y="129" width="10" height="10"/><rect x="250" y="129" width="10" height="10"/><rect x="280" y="129" width="10" height="10"/><rect x="300" y="129" width="10" height="10"/><rect x="360" y="129" width="10" height="10"/><rect x="40" y="139" width="10" height="10"/><rect x="60" y="139" width="10" height="10"/><rect x="70" y="139" width="10" height="10"/><rect x="80" y="139" width="10" height="10"/><rect x="100" y="139" width="10" height="10"/><rect x="120" y="139" width="10" height="10"/><rect x="130" y="139" width="10" height="10"/><rect x="150" y="139" width="10" height="10"/><rect x="170" y="139" width="10" height="10"/><rect x="180" y="139" width="10" height="10"/><rect x="190" y="139" width="10" height="10"/><rect x="200" y="139" width="10" height="10"/><rect x="210" y="139" width="10" height="10"/><rect x="250" y="139" width="10" height="10"/><rect x="270" y="139" width="10" height="10"/><rect x="280" y="139" width="10" height="10"/><rect x="300" y="139" width="10" height="10"/><rect x="320" y="139" width="10" height="10"/><rect x="330" y="139" width="10" height="10"/><rect x="340" y="139" width="10" height="10"/><rect x="360" y="139" width="10" height="10"/><rect x="40" y="149" width="10" height="10"/><rect x="60" y="149" width="10" height="10"/><rect x="70" y="149" width="10" height="10"/><rect x="80" y="149" width="10" height="10"/><rect x="100" y="149" width="10" height="10"/><rect x="140" y="149" width="10" height="10"/><rect x="170" y="149" width="10" height="10"/><rect x="180" y="149" width="10" height="10"/><rect x="220" y="149" width="10" height="10"/><rect x="230" y="149" width="10" height="10"/><rect x="240" y="149" width="10" height="10"/><rect x="250" y="149" width="10" height="10"/><rect x="260" y="149" width="10" height="10"/><rect x="270" y="149" width="10" height="10"/><rect x="280" y="149" width="10" height="10"/><rect x="300" y="149" width="10" height="10"/><rect x="320" y="149" width="10" height="10"/><rect x="330" y="149" width="10" height="10"/><rect x="340" y="149" width="10" height="10"/><rect x="360" y="149" width="10" height="10"/><rect x="40" y="159" width="10" height="10"/><rect x="60" y="159" width="10" height="10"/><rect x="70" y="159" width="10" height="10"/><rect x="80" y="159" width="10" height="10"/><rect x="100" y="159" width="10" height="10"/><rect x="120" y="159" width="10" height="10"/><rect x="130" y="159" width="10" height="10"/><rect x="150" y="159" width="10" height="10"/><rect x="160" y="159" width="10" height="10"/><rect x="170" y="159" width="10" height="10"/><rect x="180" y="159" width="10" height="10"/><rect x="210" y="159" width="10" height="10"/><rect x="220" y="159" width="10" height="10"/><rect x="240" y="159" width="10" height="10"/><rect x="250" y="159" width="10" height="10"/><rect x="300" y="159" width="10" height="10"/><rect x="320" y="159" width="10" height="10"/><rect x="330" y="159" width="10" height="10"/><rect x="340" y="159" width="10" height="10"/><rect x="360" y="159" width="10" height="10"/><rect x="40" y="169" width="10" height="10"/><rect x="100" y="169" width="10" height="10"/><rect x="150" y="169" width="10" height="10"/><rect x="170" y="169" width="10" height="10"/><rect x="180" y="169" width="10" height="10"/><rect x="200" y="169" width="10" height="10"/><rect x="210" y="169" width="10" height="10"/><rect x="220" y="169" width="10" height="10"/><rect x="250" y="169" width="10" height="10"/><rect x="270" y="169" width="10" height="10"/><rect x="280" y="169" width="10" height="10"/><rect x="300" y="169" width="10" height="10"/><rect x="360" y="169" width="10" height="10"/><rect x="40" y="179" width="10" height="10"/><rect x="50" y="179" width="10" height="10"/><rect x="60" y="179" width="10" height="10"/><rect x="70" y="179" width="10" height="10"/><rect x="80" y="179" width="10" height="10"/><rect x="90" y="179" width="10" height="10"/><rect x="100" y="179" width="10" height="10"/><rect x="120" y="179" width="10" height="10"/><rect x="140" y="179" width="10" height="10"/><rect x="160" y="179" width="10" height="10"/><rect x="180" y="179" width="10" height="10"/><rect x="200" y="179" width="10" height="10"/><rect x="220" y="179" width="10" height="10"/><rect x="240" y="179" width="10" height="10"/><rect x="260" y="179" width="10" height="10"/><rect x="280" y="179" width="10" height="10"/><rect x="300" y="179" width="10" height="10"/><rect x="310" y="179" width="10" height="10"/><rect x="320" y="179" width="10" height="10"/><rect x="330" y="179" width="10" height="10"/><rect x="340" y="179" width="10" height="10"/><rect x="350" y="179" width="10" height="10"/><rect x="360" y="179" width="10" height="10"/><rect x="120" y="189" width="10" height="10"/><rect x="130" y="189" width="10" height="10"/><rect x="140" y="189" width="10" height="10"/><rect x="180" y="189" width="10" height="10"/><rect x="260" y="189" width="10" height="10"/><rect x="270" y="189" width="10" height="10"/><rect x="90" y="199" width="10" height="10"/><rect x="100" y="199" width="10" height="10"/><rect x="140" y="199" width="10" height="10"/><rect x="150" y="199" width="10" height="10"/><rect x="160" y="199" width="10" height="10"/><rect x="200" y="199" width="10" height="10"/><rect x="220" y="199" width="10" height="10"/><rect x="230" y="199" width="10" height="10"/><rect x="240" y="199" width="10" height="10"/><rect x="260" y="199" width="10" height="10"/><rect x="270" y="199" width="10" height="10"/><rect x="280" y="199" width="10" height="10"/><rect x="300" y="199" width="10" height="10"/><rect x="320" y="199" width="10" height="10"/><rect x="340" y="199" width="10" height="10"/><rect x="360" y="199" width="10" height="10"/><rect x="40" y="209" width="10" height="10"/><rect x="50" y="209" width="10" height="10"/><rect x="90" y="209" width="10" height="10"/><rect x="120" y="209" width="10" height="10"/><rect x="130" y="209" width="10" height="10"/><rect x="140" y="209" width="10" height="10"/><rect x="160" y="209" width="10" height="10"/><rect x="170" y="209" width="10" height="10"/><rect x="190" y="209" width="10" height="10"/><rect x="210" y="209" width="10" height="10"/><rect x="230" y="209" width="10" height="10"/><rect x="260" y="209" width="10" height="10"/><rect x="270" y="209" width="10" height="10"/><rect x="290" y="209" width="10" height="10"/><rect x="310" y="209" width="10" height="10"/><rect x="320" y="209" width="10" height="10"/><rect x="330" y="209" width="10" height="10"/><rect x="350" y="209" width="10" height="10"/><rect x="40" y="219" width="10" height="10"/><rect x="50" y="219" width="10" height="10"/><rect x="60" y="219" width="10" height="10"/><rect x="80" y="219" width="10" height="10"/><rect x="100" y="219" width="10" height="10"/><rect x="120" y="219" width="10" height="10"/><rect x="140" y="219" width="10" height="10"/><rect x="190" y="219" width="10" height="10"/><rect x="210" y="219" width="10" height="10"/><rect x="230" y="219" width="10" height="10"/><rect x="250" y="219" width="10" height="10"/><rect x="280" y="219" width="10" height="10"/><rect x="310" y="219" width="10" height="10"/><rect x="330" y="219" width="10" height="10"/><rect x="350" y="219" width="10" height="10"/><rect x="60" y="229" width="10" height="10"/><rect x="80" y="229" width="10" height="10"/><rect x="90" y="229" width="10" height="10"/><rect x="170" y="229" width="10" height="10"/><rect x="180" y="229" width="10" height="10"/><rect x="190" y="229" width="10" height="10"/><rect x="200" y="229" width="10" height="10"/><rect x="220" y="229" width="10" height="10"/><rect x="260" y="229" width="10" height="10"/><rect x="270" y="229" width="10" height="10"/><rect x="290" y="229" width="10" height="10"/><rect x="310" y="229" width="10" height="10"/><rect x="340" y="229" width="10" height="10"/><rect x="350" y="229" width="10" height="10"/><rect x="40" y="239" width="10" height="10"/><rect x="50" y="239" width="10" height="10"/><rect x="90" y="239" width="10" height="10"/><rect x="100" y="239" width="10" height="10"/><rect x="110" y="239" width="10" height="10"/><rect x="120" y="239" width="10" height="10"/><rect x="150" y="239" width="10" height="10"/><rect x="160" y="239" width="10" height="10"/><rect x="190" y="239" width="10" height="10"/><rect x="200" y="239" width="10" height="10"/><rect x="210" y="239" width="10" height="10"/><rect x="220" y="239" width="10" height="10"/><rect x="240" y="239" width="10" height="10"/><rect x="250" y="239" width="10" height="10"/><rect x="260" y="239" width="10" height="10"/><rect x="270" y="239" width="10" height="10"/><rect x="300" y="239" width="10" height="10"/><rect x="310" y="239" width="10" height="10"/><rect x="320" y="239" width="10" height="10"/><rect x="330" y="239" width="10" height="10"/><rect x="350" y="239" width="10" height="10"/><rect x="360" y="239" width="10" height="10"/><rect x="40" y="249" width="10" height="10"/><rect x="90" y="249" width="10" height="10"/><rect x="110" y="249" width="10" height="10"/><rect x="170" y="249" width="10" height="10"/><rect x="180" y="249" width="10" height="10"/><rect x="190" y="249" width="10" height="10"/><rect x="210" y="249" width="10" height="10"/><rect x="230" y="249" width="10" height="10"/><rect x="240" y="249" width="10" height="10"/><rect x="250" y="249" width="10" height="10"/><rect x="260" y="249" width="10" height="10"/><rect x="270" y="249" width="10" height="10"/><rect x="290" y="249" width="10" height="10"/><rect x="300" y="249" width="10" height="10"/><rect x="330" y="249" width="10" height="10"/><rect x="340" y="249" width="10" height="10"/><rect x="360" y="249" width="10" height="10"/><rect x="60" y="259" width="10" height="10"/><rect x="90" y="259" width="10" height="10"/><rect x="100" y="259" width="10" height="10"/><rect x="120" y="259" width="10" height="10"/><rect x="140" y="259" width="10" height="10"/><rect x="170" y="259" width="10" height="10"/><rect x="190" y="259" width="10" height="10"/><rect x="220" y="259" width="10" height="10"/><rect x="240" y="259" width="10" height="10"/><rect x="260" y="259" width="10" height="10"/><rect x="290" y="259" width="10" height="10"/><rect x="300" y="259" width="10" height="10"/><rect x="320" y="259" width="10" height="10"/><rect x="340" y="259" width="10" height="10"/><rect x="350" y="259" width="10" height="10"/><rect x="50" y="269" width="10" height="10"/><rect x="60" y="269" width="10" height="10"/><rect x="70" y="269" width="10" height="10"/><rect x="80" y="269" width="10" height="10"/><rect x="90" y="269" width="10" height="10"/><rect x="110" y="269" width="10" height="10"/><rect x="120" y="269" width="10" height="10"/><rect x="150" y="269" width="10" height="10"/><rect x="160" y="269" width="10" height="10"/><rect x="170" y="269" width="10" height="10"/><rect x="180" y="269" width="10" height="10"/><rect x="210" y="269" width="10" height="10"/><rect x="230" y="269" width="10" height="10"/><rect x="240" y="269" width="10" height="10"/><rect x="270" y="269" width="10" height="10"/><rect x="300" y="269" width="10" height="10"/><rect x="310" y="269" width="10" height="10"/><rect x="340" y="269" width="10" height="10"/><rect x="350" y="269" width="10" height="10"/><rect x="360" y="269" width="10" height="10"/><rect x="50" y="279" width="10" height="10"/><rect x="60" y="279" width="10" height="10"/><rect x="70" y="279" width="10" height="10"/><rect x="90" y="279" width="10" height="10"/><rect x="100" y="279" width="10" height="10"/><rect x="120" y="279" width="10" height="10"/><rect x="130" y="279" width="10" height="10"/><rect x="140" y="279" width="10" height="10"/><rect x="170" y="279" width="10" height="10"/><rect x="180" y="279" width="10" height="10"/><rect x="190" y="279" width="10" height="10"/><rect x="200" y="279" width="10" height="10"/><rect x="210" y="279" width="10" height="10"/><rect x="220" y="279" width="10" height="10"/><rect x="240" y="279" width="10" height="10"/><rect x="270" y="279" width="10" height="10"/><rect x="310" y="279" width="10" height="10"/><rect x="320" y="279" width="10" height="10"/><rect x="330" y="279" width="10" height="10"/><rect x="350" y="279" width="10" height="10"/><rect x="360" y="279" width="10" height="10"/><rect x="40" y="289" width="10" height="10"/><rect x="50" y="289" width="10" height="10"/><rect x="70" y="289" width="10" height="10"/><rect x="120" y="289" width="10" height="10"/><rect x="140" y="289" width="10" height="10"/><rect x="160" y="289" width="10" height="10"/><rect x="180" y="289" width="10" height="10"/><rect x="200" y="289" width="10" height="10"/><rect x="210" y="289" width="10" height="10"/><rect x="220" y="289" width="10" height="10"/><rect x="240" y="289" width="10" height="10"/><rect x="250" y="289" width="10" height="10"/><rect x="270" y="289" width="10" height="10"/><rect x="280" y="289" width="10" height="10"/><rect x="300" y="289" width="10" height="10"/><rect x="310" y="289" width="10" height="10"/><rect x="360" y="289" width="10" height="10"/><rect x="40" y="299" width="10" height="10"/><rect x="100" y="299" width="10" height="10"/><rect x="110" y="299" width="10" height="10"/><rect x="120" y="299" width="10" height="10"/><rect x="150" y="299" width="10" height="10"/><rect x="170" y="299" width="10" height="10"/><rect x="190" y="299" width="10" height="10"/><rect x="210" y="299" width="10" height="10"/><rect x="220" y="299" width="10" height="10"/><rect x="240" y="299" width="10" height="10"/><rect x="270" y="299" width="10" height="10"/><rect x="320" y="299" width="10" height="10"/><rect x="330" y="299" width="10" height="10"/><rect x="340" y="299" width="10" height="10"/><rect x="360" y="299" width="10" height="10"/><rect x="50" y="309" width="10" height="10"/><rect x="60" y="309" width="10" height="10"/><rect x="80" y="309" width="10" height="10"/><rect x="150" y="309" width="10" height="10"/><rect x="160" y="309" width="10" height="10"/><rect x="170" y="309" width="10" height="10"/><rect x="180" y="309" width="10" height="10"/><rect x="190" y="309" width="10" height="10"/><rect x="240" y="309" width="10" height="10"/><rect x="270" y="309" width="10" height="10"/><rect x="280" y="309" width="10" height="10"/><rect x="300" y="309" width="10" height="10"/><rect x="320" y="309" width="10" height="10"/><rect x="330" y="309" width="10" height="10"/><rect x="340" y="309" width="10" height="10"/><rect x="360" y="309" width="10" height="10"/><rect x="50" y="319" width="10" height="10"/><rect x="70" y="319" width="10" height="10"/><rect x="90" y="319" width="10" height="10"/><rect x="100" y="319" width="10" height="10"/><rect x="120" y="319" width="10" height="10"/><rect x="160" y="319" width="10" height="10"/><rect x="170" y="319" width="10" height="10"/><rect x="180" y="319" width="10" height="10"/><rect x="190" y="319" width="10" height="10"/><rect x="220" y="319" width="10" height="10"/><rect x="260" y="319" width="10" height="10"/><rect x="290" y="319" width="10" height="10"/><rect x="300" y="319" width="10" height="10"/><rect x="310" y="319" width="10" height="10"/><rect x="320" y="319" width="10" height="10"/><rect x="330" y="319" width="10" height="10"/><rect x="40" y="329" width="10" height="10"/><rect x="80" y="329" width="10" height="10"/><rect x="120" y="329" width="10" height="10"/><rect x="130" y="329" width="10" height="10"/><rect x="180" y="329" width="10" height="10"/><rect x="190" y="329" width="10" height="10"/><rect x="220" y="329" width="10" height="10"/><rect x="230" y="329" width="10" height="10"/><rect x="260" y="329" width="10" height="10"/><rect x="280" y="329" width="10" height="10"/><rect x="300" y="329" width="10" height="10"/><rect x="310" y="329" width="10" height="10"/><rect x="320" y="329" width="10" height="10"/><rect x="330" y="329" width="10" height="10"/><rect x="340" y="329" width="10" height="10"/><rect x="40" y="339" width="10" height="10"/><rect x="60" y="339" width="10" height="10"/><rect x="70" y="339" width="10" height="10"/><rect x="80" y="339" width="10" height="10"/><rect x="100" y="339" width="10" height="10"/><rect x="110" y="339" width="10" height="10"/><rect x="120" y="339" width="10" height="10"/><rect x="150" y="339" width="10" height="10"/><rect x="160" y="339" width="10" height="10"/><rect x="170" y="339" width="10" height="10"/><rect x="180" y="339" width="10" height="10"/><rect x="190" y="339" width="10" height="10"/><rect x="200" y="339" width="10" height="10"/><rect x="240" y="339" width="10" height="10"/><rect x="250" y="339" width="10" height="10"/><rect x="350" y="339" width="10" height="10"/><rect x="40" y="349" width="10" height="10"/><rect x="80" y="349" width="10" height="10"/><rect x="90" y="349" width="10" height="10"/><rect x="120" y="349" width="10" height="10"/><rect x="130" y="349" width="10" height="10"/><rect x="150" y="349" width="10" height="10"/><rect x="160" y="349" width="10" height="10"/><rect x="190" y="349" width="10" height="10"/><rect x="200" y="349" width="10" height="10"/><rect x="220" y="349" width="10" height="10"/><rect x="240" y="349" width="10" height="10"/><rect x="260" y="349" width="10" height="10"/><rect x="280" y="349" width="10" height="10"/><rect x="320" y="349" width="10" height="10"/><rect x="330" y="349" width="10" height="10"/><rect x="340" y="349" width="10" height="10"/><rect x="350" y="349" width="10" height="10"/><rect x="360" y="349" width="10" height="10"/><rect x="40" y="359" width="10" height="10"/><rect x="50" y="359" width="10" height="10"/><rect x="60" y="359" width="10" height="10"/><rect x="70" y="359" width="10" height="10"/><rect x="80" y="359" width="10" height="10"/><rect x="100" y="359" width="10" height="10"/><rect x="110" y="359" width="10" height="10"/><rect x="130" y="359" width="10" height="10"/><rect x="150" y="359" width="10" height="10"/><rect x="160" y="359" width="10" height="10"/><rect x="170" y="359" width="10" height="10"/><rect x="180" y="359" width="10" height="10"/><rect x="210" y="359" width="10" height="10"/><rect x="240" y="359" width="10" height="10"/><rect x="270" y="359" width="10" height="10"/><rect x="280" y="359" width="10" height="10"/><rect x="290" y="359" width="10" height="10"/><rect x="300" y="359" width="10" height="10"/><rect x="310" y="359" width="10" height="10"/><rect x="320" y="359" width="10" height="10"/><rect x="330" y="359" width="10" height="10"/><rect x="350" y="359" width="10" height="10"/><rect x="360" y="359" width="10" height="10"/><rect x="120" y="369" width="10" height="10"/><rect x="130" y="369" width="10" height="10"/><rect x="150" y="369" width="10" height="10"/><rect x="170" y="369" width="10" height="10"/><rect x="180" y="369" width="10" height="10"/><rect x="190" y="369" width="10" height="10"/><rect x="200" y="369" width="10" height="10"/><rect x="210" y="369" width="10" height="10"/><rect x="220" y="369" width="10" height="10"/><rect x="230" y="369" width="10" height="10"/><rect x="250" y="369" width="10" height="10"/><rect x="260" y="369" width="10" height="10"/><rect x="270" y="369" width="10" height="10"/><rect x="280" y="369" width="10" height="10"/><rect x="320" y="369" width="10" height="10"/><rect x="330" y="369" width="10" height="10"/><rect x="360" y="369" width="10" height="10"/><rect x="40" y="379" width="10" height="10"/><rect x="50" y="379" width="10" height="10"/><rect x="60" y="379" width="10" height="10"/><rect x="70" y="379" width="10" height="10"/><rect x="80" y="379" width="10" height="10"/><rect x="90" y="379" width="10" height="10"/><rect x="100" y="379" width="10" height="10"/><rect x="130" y="379" width="10" height="10"/><rect x="140" y="379" width="10" height="10"/><rect x="180" y="379" width="10" height="10"/><rect x="200" y="379" width="10" height="10"/><rect x="240" y="379" width="10" height="10"/><rect x="260" y="379" width="10" height="10"/><rect x="270" y="379" width="10" height="10"/><rect x="280" y="379" width="10" height="10"/><rect x="300" y="379" width="10" height="10"/><rect x="320" y="379" width="10" height="10"/><rect x="350" y="379" width="10" height="10"/><rect x="40" y="389" width="10" height="10"/><rect x="100" y="389" width="10" height="10"/><rect x="120" y="389" width="10" height="10"/><rect x="130" y="389" width="10" height="10"/><rect x="140" y="389" width="10" height="10"/><rect x="150" y="389" width="10" height="10"/><rect x="160" y="389" width="10" height="10"/><rect x="180" y="389" width="10" height="10"/><rect x="200" y="389" width="10" height="10"/><rect x="250" y="389" width="10" height="10"/><rect x="260" y="389" width="10" height="10"/><rect x="270" y="389" width="10" height="10"/><rect x="280" y="389" width="10" height="10"/><rect x="320" y="389" width="10" height="10"/><rect x="330" y="389" width="10" height="10"/><rect x="340" y="389" width="10" height="10"/><rect x="350" y="389" width="10" height="10"/><rect x="40" y="399" width="10" height="10"/><rect x="60" y="399" width="10" height="10"/><rect x="70" y="399" width="10" height="10"/><rect x="80" y="399" width="10" height="10"/><rect x="100" y="399" width="10" height="10"/><rect x="130" y="399" width="10" height="10"/><rect x="150" y="399" width="10" height="10"/><rect x="160" y="399" width="10" height="10"/><rect x="180" y="399" width="10" height="10"/><rect x="200" y="399" width="10" height="10"/><rect x="210" y="399" width="10" height="10"/><rect x="230" y="399" width="10" height="10"/><rect x="250" y="399" width="10" height="10"/><rect x="260" y="399" width="10" height="10"/><rect x="280" y="399" width="10" height="10"/><rect x="290" y="399" width="10" height="10"/><rect x="300" y="399" width="10" height="10"/><rect x="310" y="399" width="10" height="10"/><rect x="320" y="399" width="10" height="10"/><rect x="350" y="399" width="10" height="10"/><rect x="360" y="399" width="10" height="10"/><rect x="40" y="409" width="10" height="10"/><rect x="60" y="409" width="10" height="10"/><rect x="70" y="409" width="10" height="10"/><rect x="80" y="409" width="10" height="10"/><rect x="100" y="409" width="10" height="10"/><rect x="130" y="409" width="10" height="10"/><rect x="140" y="409" width="10" height="10"/><rect x="170" y="409" width="10" height="10"/><rect x="190" y="409" width="10" height="10"/><rect x="210" y="409" width="10" height="10"/><rect x="230" y="409" width="10" height="10"/><rect x="250" y="409" width="10" height="10"/><rect x="270" y="409" width="10" height="10"/><rect x="290" y="409" width="10" height="10"/><rect x="310" y="409" width="10" height="10"/><rect x="320" y="409" width="10" height="10"/><rect x="340" y="409" width="10" height="10"/><rect x="350" y="409" width="10" height="10"/><rect x="40" y="419" width="10" height="10"/><rect x="60" y="419" width="10" height="10"/><rect x="70" y="419" width="10" height="10"/><rect x="80" y="419" width="10" height="10"/><rect x="100" y="419" width="10" height="10"/><rect x="130" y="419" width="10" height="10"/><rect x="150" y="419" width="10" height="10"/><rect x="180" y="419" width="10" height="10"/><rect x="190" y="419" width="10" height="10"/><rect x="210" y="419" width="10" height="10"/><rect x="220" y="419" width="10" height="10"/><rect x="260" y="419" width="10" height="10"/><rect x="320" y="419" width="10" height="10"/><rect x="330" y="419" width="10" height="10"/><rect x="350" y="419" width="10" height="10"/><rect x="360" y="419" width="10" height="10"/><rect x="40" y="429" width="10" height="10"/><rect x="100" y="429" width="10" height="10"/><rect x="150" y="429" width="10" height="10"/><rect x="160" y="429" width="10" height="10"/><rect x="200" y="429" width="10" height="10"/><rect x="240" y="429" width="10" height="10"/><rect x="250" y="429" width="10" height="10"/><rect x="290" y="429" width="10" height="10"/><rect x="340" y="429" width="10" height="10"/><rect x="40" y="439" width="10" height="10"/><rect x="50" y="439" width="10" height="10"/><rect x="60" y="439" width="10" height="10"/><rect x="70" y="439" width="10" height="10"/><rect x="80" y="439" width="10" height="10"/><rect x="90" y="439" width="10" height="10"/><rect x="100" y="439" width="10" height="10"/><rect x="130" y="439" width="10" height="10"/><rect x="150" y="439" width="10" height="10"/><rect x="160" y="439" width="10" height="10"/><rect x="190" y="439" width="10" height="10"/><rect x="200" y="439" width="10" height="10"/><rect x="220" y="439" width="10" height="10"/><rect x="230" y="439" width="10" height="10"/><rect x="240" y="439" width="10" height="10"/><rect x="250" y="439" width="10" height="10"/><rect x="260" y="439" width="10" height="10"/><rect x="270" y="439" width="10" height="10"/><rect x="280" y="439" width="10" height="10"/><rect x="350" y="439" width="10" height="10"/></g><g fill="#111111" transform="translate(100.924,49.079) scale(0.022382,-0.022382)"><path transform="translate(0.0,0)" d="M174 1241H444V582H174Z"/><path transform="translate(618.0,0)" d="M262 999H72V1241H768Q1056 1241 1181.5 1119.5Q1307 998 1307 717V0H1036V713Q1036 873 971.0 936.0Q906 999 752 999H532V475Q532 301 492.5 198.0Q453 95 370.0 47.5Q287 0 129 0H61V242H78Q148 242 188.0 267.5Q228 293 245.0 347.0Q262 401 262 510Z"/><path transform="translate(2088.0,0)" d="M174 1241H444V0H174Z"/><path transform="translate(2706.0,0)" d="M125 1241H453L858 680Q921 737 954.0 814.0Q987 891 1001 1022L1022 1241H1298L1274 1004Q1264 904 1233.5 824.5Q1203 745 1151.5 677.0Q1100 609 987 508L1360 0H1034L535 692Q481 661 459.0 601.5Q437 542 408 362L346 0H66L150 414Q186 585 216.0 659.0Q246 733 290.5 776.5Q335 820 414 854Z"/><path transform="translate(4672.0,0)" d="M174 1241H444V0H174Z"/><path transform="translate(5290.0,0)" d="M444 762V-385H174V762ZM123 1241H741Q995 1241 1111.0 1144.5Q1227 1048 1227 829Q1227 544 1055.0 317.5Q883 91 561 -41V246Q749 334 851.5 480.5Q954 627 954 797Q954 909 898.0 954.0Q842 999 702 999H123Z"/><path transform="translate(6629.0,0)" d="M1016 0H745V721Q745 876 678.5 937.5Q612 999 455 999H39V1241H471Q766 1241 891.0 1120.5Q1016 1000 1016 719Z"/><path transform="translate(7809.0,0)" d="M133 627Q133 726 162.5 833.5Q192 941 240 999H51V1241H745Q1046 1241 1181.5 1114.0Q1317 987 1317 705V625Q1317 306 1163.0 143.0Q1009 -20 709 -20Q415 -20 274.0 133.5Q133 287 133 596ZM475 999Q414 893 414 643V598Q414 221 715 221Q883 221 958.5 318.0Q1034 415 1034 633V707Q1034 863 961.5 931.0Q889 999 725 999Z"/></g><g fill="#111111" transform="translate(123.735,542.120) scale(0.019319,-0.019319)"><path transform="translate(0.0,0)" d="M1286 406Q1286 199 1132.5 89.5Q979 -20 682 -20Q411 -20 257.0 76.0Q103 172 59 367L344 414Q373 302 457.0 251.5Q541 201 690 201Q999 201 999 389Q999 449 963.5 488.0Q928 527 863.5 553.0Q799 579 616 616Q458 653 396.0 675.5Q334 698 284.0 728.5Q234 759 199.0 802.0Q164 845 144.5 903.0Q125 961 125 1036Q125 1227 268.5 1328.5Q412 1430 686 1430Q948 1430 1079.5 1348.0Q1211 1266 1249 1077L963 1038Q941 1129 873.5 1175.0Q806 1221 680 1221Q412 1221 412 1053Q412 998 440.5 963.0Q469 928 525.0 903.5Q581 879 752 842Q955 799 1042.5 762.5Q1130 726 1181.0 677.5Q1232 629 1259.0 561.5Q1286 494 1286 406Z"/><path transform="translate(1366.0,0)" d="M594 -20Q348 -20 214.0 126.5Q80 273 80 535Q80 803 215.0 952.5Q350 1102 598 1102Q789 1102 914.0 1006.0Q1039 910 1071 741L788 727Q776 810 728.0 859.5Q680 909 592 909Q375 909 375 546Q375 172 596 172Q676 172 730.0 222.5Q784 273 797 373L1079 360Q1064 249 999.5 162.0Q935 75 830.0 27.5Q725 -20 594 -20Z"/><path transform="translate(2505.0,0)" d="M393 -20Q236 -20 148.0 65.5Q60 151 60 306Q60 474 169.5 562.0Q279 650 487 652L720 656V711Q720 817 683.0 868.5Q646 920 562 920Q484 920 447.5 884.5Q411 849 402 767L109 781Q136 939 253.5 1020.5Q371 1102 574 1102Q779 1102 890.0 1001.0Q1001 900 1001 714V320Q1001 229 1021.5 194.5Q1042 160 1090 160Q1122 160 1152 166V14Q1127 8 1107.0 3.0Q1087 -2 1067.0 -5.0Q1047 -8 1024.5 -10.0Q1002 -12 972 -12Q866 -12 815.5 40.0Q765 92 755 193H749Q631 -20 393 -20ZM720 501 576 499Q478 495 437.0 477.5Q396 460 374.5 424.0Q353 388 353 328Q353 251 388.5 213.5Q424 176 483 176Q549 176 603.5 212.0Q658 248 689.0 311.5Q720 375 720 446Z"/><path transform="translate(3644.0,0)" d="M844 0V607Q844 892 651 892Q549 892 486.5 804.5Q424 717 424 580V0H143V840Q143 927 140.5 982.5Q138 1038 135 1082H403Q406 1063 411.0 980.5Q416 898 416 867H420Q477 991 563.0 1047.0Q649 1103 768 1103Q940 1103 1032.0 997.0Q1124 891 1124 687V0Z"/><path transform="translate(5464.0,0)" d="M780 0V607Q780 892 616 892Q531 892 477.5 805.0Q424 718 424 580V0H143V840Q143 927 140.5 982.5Q138 1038 135 1082H403Q406 1063 411.0 980.5Q416 898 416 867H420Q472 991 549.5 1047.0Q627 1103 735 1103Q983 1103 1036 867H1042Q1097 993 1174.0 1048.0Q1251 1103 1370 1103Q1528 1103 1611.0 995.5Q1694 888 1694 687V0H1415V607Q1415 892 1251 892Q1169 892 1116.5 812.5Q1064 733 1059 593V0Z"/><path transform="translate(7285.0,0)" d="M586 -20Q342 -20 211.0 124.5Q80 269 80 546Q80 814 213.0 958.0Q346 1102 590 1102Q823 1102 946.0 947.5Q1069 793 1069 495V487H375Q375 329 433.5 248.5Q492 168 600 168Q749 168 788 297L1053 274Q938 -20 586 -20ZM586 925Q487 925 433.5 856.0Q380 787 377 663H797Q789 794 734.0 859.5Q679 925 586 925Z"/></g></svg>